<svg xmlns="http://www.w3.org/2000/svg" width="1200" height="675" viewBox="0 0 1200 675">
<rect width="1200" height="675" fill="#eeecf7"/><rect x="120" y="70" width="960" height="535" rx="20" fill="#fff"/><path d="M370 70v535" stroke="#eeecf7" stroke-width="3"/><text x="155" y="143" font-family="system-ui,sans-serif" font-size="26" font-weight="600" fill="#655b92">Workspace</text><rect x="155" y="210" width="160" height="18" rx="9" fill="#e9e6f3"/><rect x="155" y="266" width="160" height="18" rx="9" fill="#e9e6f3"/><rect x="155" y="322" width="160" height="18" rx="9" fill="#e9e6f3"/><text x="420" y="150" font-family="system-ui,sans-serif" font-size="38" font-weight="600" fill="#24222d">Room for your ideas.</text><rect x="420" y="205" width="595" height="82" rx="12" fill="#f6f5fa"/><rect x="449" y="232" width="24" height="24" rx="6" fill="none" stroke="#aea7c5" stroke-width="3"/><rect x="495" y="238" width="350" height="12" rx="6" fill="#d6d1e4"/><rect x="420" y="311" width="595" height="82" rx="12" fill="#f6f5fa"/><rect x="449" y="338" width="24" height="24" rx="6" fill="none" stroke="#aea7c5" stroke-width="3"/><rect x="495" y="344" width="285" height="12" rx="6" fill="#d6d1e4"/><rect x="420" y="417" width="595" height="82" rx="12" fill="#f6f5fa"/><rect x="449" y="444" width="24" height="24" rx="6" fill="none" stroke="#aea7c5" stroke-width="3"/><rect x="495" y="450" width="220" height="12" rx="6" fill="#d6d1e4"/>
</svg>
